HIERARCHY
ROOT hip
{
	OFFSET 0.000000 0.000000 0.000000
	CHANNELS 6 Xposition Yposition Zposition Xrotation Zrotation Yrotation 
	JOINT abdomen
	{
		OFFSET 0.000000 3.422050 0.000000
		CHANNELS 3 Xrotation Zrotation Yrotation 
		JOINT chest
		{
			OFFSET 0.000000 8.486693 -0.684411
			CHANNELS 3 Xrotation Zrotation Yrotation 
			JOINT neck
			{
				OFFSET 0.000000 10.266162 -0.273764
				CHANNELS 3 Xrotation Zrotation Yrotation 
				JOINT head
				{
					OFFSET 0.000000 3.148285 0.000000
					CHANNELS 3 Xrotation Zrotation Yrotation 
					End Site
					{
						OFFSET 0.000000 3.148289 0.000000
					}
				}
			}
			JOINT lCollar
			{
				OFFSET 3.422053 6.707223 -0.821293
				CHANNELS 3 Yrotation Zrotation Xrotation 
				JOINT lShldr
				{
					OFFSET 3.285171 0.000000 0.000000
					CHANNELS 3 Zrotation Yrotation Xrotation 
					JOINT lForeArm
					{
						OFFSET 10.129278 0.000000 0.000000
						CHANNELS 3 Yrotation Zrotation Xrotation 
						JOINT lHand
						{
							OFFSET 8.486692 0.000000 0.000000
							CHANNELS 3 Zrotation Yrotation Xrotation 
							End Site
							{
								OFFSET 4.106464 0.000000 0.000000
							}
						}
					}
				}
			}
			JOINT rCollar
			{
				OFFSET -3.558935 6.707223 -0.821293
				CHANNELS 3 Yrotation Zrotation Xrotation 
				JOINT rShldr
				{
					OFFSET -3.148289 0.000000 0.000000
					CHANNELS 3 Zrotation Yrotation Xrotation 
					JOINT rForeArm
					{
						OFFSET -10.266159 0.000000 0.000000
						CHANNELS 3 Yrotation Zrotation Xrotation 
						JOINT rHand
						{
							OFFSET -8.349810 0.000000 0.000000
							CHANNELS 3 Zrotation Yrotation Xrotation 
							End Site
							{
								OFFSET -4.106464 0.000000 0.000000
							}
						}
					}
				}
			}
		}
	}
	JOINT lThigh
	{
		OFFSET 5.338403 -1.642589 1.368821
		CHANNELS 3 Xrotation Zrotation Yrotation 
		JOINT lShin
		{
			OFFSET -2.053232 -20.121670 0.000000
			CHANNELS 3 Xrotation Zrotation Yrotation 
			JOINT lFoot
			{
				OFFSET 0.000000 -19.300380 -1.231939
				CHANNELS 3 Xrotation Yrotation Zrotation 
				End Site
				{
					OFFSET 0.000000 -2.463878 4.653993
				}
			}
		}
	}
	JOINT rThigh
	{
		OFFSET -5.338403 -1.642589 1.368821
		CHANNELS 3 Xrotation Zrotation Yrotation 
		JOINT rShin
		{
			OFFSET 2.053232 -20.121670 0.000000
			CHANNELS 3 Xrotation Zrotation Yrotation 
			JOINT rFoot
			{
				OFFSET 0.000000 -19.300380 -1.231939
				CHANNELS 3 Xrotation Yrotation Zrotation 
				End Site
				{
					OFFSET 0.000000 -2.463878 4.653993
				}
			}
		}
	}
}
MOTION
Frames: 10
Frame Time: 0.033264
0.000000 43.528500 0.000000 0.000000 0.000000 0.000000 0.000000 0.000000 0.000000 0.000000 0.000000 0.000000 0.000000 0.000000 0.000000 0.000000 0.000000 0.000000 0.000000 0.000000 0.000000 0.000000 0.000000 0.000000 0.000000 0.000000 0.000000 0.000000 0.000000 0.000000 0.000000 0.000000 0.000000 0.000000 0.000000 0.000000 0.000000 0.000000 0.000000 0.000000 0.000000 0.000000 0.000000 0.000000 0.000000 0.000000 0.000000 0.000000 0.000000 0.000000 0.000000 0.000000 0.000000 0.000000 0.000000 0.000000 0.000000 0.000000 0.000000 0.000000 
0.820027 25.208694 -1.234536 28.997015 0.000000 0.000000 -15.285516 0.378989 -0.423108 22.832468 -0.654081 -2.017722 -19.004614 0.000000 0.000000 0.361946 0.000000 0.000000 -29.359692 -7.829189 -26.656075 -44.098839 -10.179928 -1.895205 -45.666275 -45.973724 -8.063909 59.512764 24.666843 20.060423 28.275949 6.769420 -26.612160 45.078259 11.111377 -1.706763 41.729252 43.928532 -5.356292 -51.711884 -21.821188 17.575855 -34.082546 11.953355 10.184305 93.864281 1.757223 -0.452947 60.201984 8.931102 -14.975943 -34.110867 -12.059620 -10.265216 93.875252 -1.870755 0.515760 61.196049 -8.762215 15.061236 
0.820027 25.208694 -1.068330 27.346363 0.000000 0.000000 -13.366491 0.379079 -0.423069 23.883858 -0.654081 -2.017591 -18.898317 0.066749 -0.011109 0.489023 0.000000 0.000000 -29.111681 -7.330627 -27.030106 -44.098839 -10.179929 -1.895205 -47.076210 -46.678379 -9.064798 60.585972 24.297976 20.524702 28.043789 6.279067 -26.991669 45.078259 11.111377 -1.706763 43.120956 44.711857 -6.306497 -52.762619 -21.530254 17.921793 -31.829586 11.832747 10.187741 93.156654 1.708032 -0.467157 60.201992 8.931102 -14.975945 -31.856859 -11.941582 -10.272025 93.166985 -1.822731 0.531075 61.196056 -8.762216 15.061236 
0.820027 25.208694 -0.902123 25.690136 0.000000 0.000000 -11.438630 0.379168 -0.423027 24.936682 -0.654084 -2.017460 -18.792009 0.133533 -0.022097 0.616127 0.000000 0.000000 -28.860521 -6.833399 -27.406120 -44.098843 -10.179929 -1.895204 -48.525208 -47.366814 -10.105995 61.654171 23.920776 20.980593 27.808439 5.789982 -27.373041 45.078262 11.111378 -1.706763 44.552841 45.479698 -7.298519 -53.810684 -21.233105 18.261688 -29.563177 11.711328 10.186309 92.448624 1.658638 -0.480766 60.201984 8.931102 -14.975945 -29.589376 -11.822614 -10.274079 92.458344 -1.774492 0.545803 61.196049 -8.762215 15.061236 
0.820027 25.208694 -0.735917 24.028990 0.000000 0.000000 -9.502972 0.379256 -0.422981 25.990749 -0.654089 -2.017329 -18.685686 0.200352 -0.032963 0.743258 0.000000 0.000000 -28.606211 -6.337570 -27.784147 -44.098846 -10.179929 -1.895205 -50.014011 -48.037861 -11.188249 62.717201 23.535454 21.427927 27.569910 5.302231 -27.756308 45.078259 11.111377 -1.706764 46.025990 46.230843 -8.333419 -54.855881 -20.929886 18.595387 -27.284946 11.589373 10.179926 91.740242 1.609054 -0.493770 60.201992 8.931103 -14.975945 -27.310070 -11.702987 -10.271297 91.749336 -1.726049 0.559940 61.196056 -8.762216 15.061236 
0.820027 25.208694 -0.569710 22.363602 0.000000 0.000000 -7.560581 0.379343 -0.422933 27.045897 -0.654096 -2.017199 -18.579361 0.267204 -0.043707 0.870417 0.000000 0.000000 -28.348724 -5.843206 -28.164192 -44.098835 -10.179927 -1.895204 -51.543278 -48.690380 -12.312217 63.774857 23.142218 21.866533 27.328186 4.815878 -28.141474 45.078255 11.111376 -1.706764 47.541363 46.964039 -9.412160 -55.898052 -20.620747 18.922754 -24.996607 11.467174 10.168537 91.031563 1.559290 -0.506164 60.201984 8.931103 -14.975943 -25.020632 -11.582979 -10.263608 91.040039 -1.677411 0.573482 61.196049 -8.762214 15.061236 
0.820027 25.208694 -0.403504 20.694674 0.000000 0.000000 -5.612546 0.379429 -0.422881 28.101942 -0.654106 -2.017068 -18.473024 0.334090 -0.054329 0.997602 0.000000 0.000000 -28.088085 -5.350378 -28.546286 -44.098839 -10.179928 -1.895204 -53.113506 -49.323166 -13.478404 64.827011 22.741301 22.296270 27.083260 4.330988 -28.528566 45.078259 11.111375 -1.706763 49.099785 47.677971 -10.535595 -56.937061 -20.305853 19.243671 -22.699903 11.345018 10.152104 90.322639 1.509357 -0.517946 60.201984 8.931102 -14.975943 -22.722843 -11.462884 -10.250978 90.330490 -1.628592 0.586426 61.196049 -8.762215 15.061236 
0.820027 25.208694 -0.237298 19.022890 0.000000 0.000000 -3.659968 0.379513 -0.422826 29.158703 -0.654118 -2.016937 -18.366674 0.401010 -0.064830 1.124813 0.000000 0.000000 -27.824274 -4.859154 -28.930449 -44.098839 -10.179928 -1.895205 -54.725033 -49.935020 -14.687166 65.873512 22.332933 22.716997 26.835142 3.847629 -28.917622 45.078259 11.111377 -1.706763 50.702003 48.371330 -11.704451 -57.972706 -19.985361 19.557997 -20.396641 11.223214 10.130628 89.613525 1.459267 -0.529113 60.201984 8.931102 -14.975943 -20.418489 -11.342992 -10.233387 89.620750 -1.579600 0.598767 61.196049 -8.762215 15.061236 
0.820027 25.208694 -0.071091 17.348970 0.000000 0.000000 -1.703973 0.379595 -0.422769 30.216009 -0.654133 -2.016807 -18.260313 0.467962 -0.075208 1.252051 0.000000 0.000000 -27.557287 -4.369600 -29.316689 -44.098839 -10.179928 -1.895205 -56.378033 -50.524700 -15.938672 66.914215 21.917339 23.128592 26.583817 3.365864 -29.308636 45.078259 11.111377 -1.706763 52.348557 49.042728 -12.919285 -59.004864 -19.659437 19.865631 -18.088636 11.102059 10.104117 88.904259 1.409031 -0.539660 60.201992 8.931102 -14.975945 -18.109392 -11.223601 -10.210843 88.910858 -1.530448 0.610502 61.196049 -8.762216 15.061238 
0.820027 25.208694 0.095115 15.673613 0.000000 0.000000 0.254308 0.379675 -0.422708 31.273668 -0.654150 -2.016677 -18.153942 0.534947 -0.085465 1.379315 0.000000 0.000000 -27.287127 -3.881786 -29.705036 -44.098839 -10.179928 -1.895205 -58.072495 -51.091026 -17.232899 67.949013 21.494774 23.530949 26.329288 2.885760 -29.701645 45.078262 11.111377 -1.706763 54.039825 49.690830 -14.180470 -60.033390 -19.328257 20.166466 -15.777739 10.981854 10.072615 88.194931 1.358661 -0.549586 60.201984 8.931102 -14.975945 -15.797406 -11.105000 -10.183373 88.200912 -1.481147 0.621629 61.196049 -8.762217 15.061238 
